<svg width="164" height="134" viewBox="0 0 164 134" fill="none" xmlns="http://www.w3.org/2000/svg">
<path d="M3.80076 7.12039C3.09358 7.12039 2.40228 6.91185 1.81428 6.52113C1.22628 6.13041 0.76799 5.57508 0.497363 4.92534C0.226736 4.2756 0.155931 3.56065 0.293895 2.87089C0.431859 2.18113 0.772398 1.54755 1.27245 1.05026C1.7725 0.552973 2.40961 0.214317 3.1032 0.077115C3.79679 -0.0600865 4.51572 0.0103283 5.16907 0.279458C5.82242 0.548588 6.38085 1.00435 6.77374 1.58909C7.16663 2.17384 7.37633 2.86132 7.37633 3.56459C7.37524 4.50732 6.99819 5.41112 6.32787 6.07773C5.65756 6.74433 4.74873 7.11931 3.80076 7.12039ZM3.80076 0.601426C3.21145 0.601426 2.63536 0.775213 2.14536 1.10081C1.65536 1.42641 1.27346 1.88919 1.04794 2.43063C0.822416 2.97208 0.763409 3.56788 0.878379 4.14267C0.993349 4.71747 1.27713 5.24546 1.69384 5.65987C2.11055 6.07427 2.64147 6.35648 3.21947 6.47082C3.79746 6.58515 4.39657 6.52647 4.94102 6.3022C5.48548 6.07792 5.95083 5.69813 6.27824 5.21084C6.60564 4.72355 6.7804 4.15065 6.7804 3.56459C6.77952 2.77898 6.46531 2.02579 5.90671 1.47028C5.34811 0.91477 4.59074 0.6023 3.80076 0.601426Z" fill="#3F3D56"/>
<path d="M162.862 99.3608H156.98V93.5111H162.862V99.3608ZM157.433 98.9108H162.41V93.9611H157.433L157.433 98.9108Z" fill="#3F3D56"/>
<path d="M22.713 94.0509L18.7009 89.7731L23.0023 85.7832L27.0145 90.0609L22.713 94.0509ZM19.3404 89.7953L22.7352 93.4149L26.3749 90.0388L22.9801 86.4192L19.3404 89.7953Z" fill="#3F3D56"/>
<path d="M157.1 133.852C150.657 132.849 144.462 131.996 138.515 131.292L140.805 126.738C140.01 126.474 136.566 129.109 136.566 129.109L139.48 115.935C135.506 116.462 133.651 129.9 133.651 129.9L129.147 125.42L131.364 130.492C113.167 128.59 97.4642 127.997 84.2645 128.133L86.2244 124.235C85.4296 123.971 81.9852 126.606 81.9852 126.606L84.8997 113.432C80.9254 113.958 79.0707 127.396 79.0707 127.396L74.5665 122.917L76.9149 128.289C67.8732 128.55 58.8509 129.272 49.8836 130.453C51.8394 124.394 58.6693 118.57 58.6693 118.57C53.4177 120.194 50.6857 122.841 49.2716 125.295C48.9855 112.847 50.9112 100.446 54.9599 88.6636C54.9599 88.6636 44.3618 112.378 45.9515 128.187L46.1532 130.995C36.933 132.426 32.3064 133.852 32.3064 133.852H157.1Z" fill="#3F3D56"/>
<path opacity="0.3" d="M91.7606 102.002C114.635 102.002 133.178 83.5618 133.178 60.8143C133.178 38.0667 114.635 19.6262 91.7606 19.6262C68.8866 19.6262 50.3435 38.0667 50.3435 60.8143C50.3435 83.5618 68.8866 102.002 91.7606 102.002Z" fill="#8B30D2"/>
<path d="M74.7518 8.41516L47.1752 41.6894L87.9885 89.5901L115.197 57.7784L74.7518 8.41516Z" fill="#8B30D2"/>
<path opacity="0.1" d="M74.7518 8.41516L47.1752 41.6894L87.9885 89.5901L115.197 57.7784L74.7518 8.41516Z" fill="black"/>
<path d="M48.2783 42.0552C48.8883 40.9633 49.6447 39.9589 50.5267 39.0696L75.8548 13.5342C75.8548 13.5342 84.6793 12.0716 86.5177 16.4594L54.1613 42.7865L48.2783 42.0552Z" fill="#F2F2F2"/>
<path d="M46.9914 41.5067L84.4954 98.5487C84.4954 98.5487 88.1723 101.108 91.8492 99.6456L130.272 73.8671L89.4592 12.4373L52.6906 40.9582L46.9914 41.5067Z" fill="#8B30D2"/>
<path d="M84.8741 21.3391L61.3402 38.1566L61.688 38.6378L85.2218 21.8204L84.8741 21.3391Z" fill="#3F3D56"/>
<path d="M61.0282 44.4513L60.5312 44.7782L91.4169 91.2163L91.9139 90.8894L61.0282 44.4513Z" fill="#3F3D56"/>
<path d="M120.165 73.9904L95.1685 92.2804L95.5217 92.7579L120.519 74.4678L120.165 73.9904Z" fill="#3F3D56"/>
<path d="M89.3361 22.1408L88.8472 22.4792L120.836 68.1858L121.325 67.8474L89.3361 22.1408Z" fill="#3F3D56"/>
<path d="M79.4552 13.1718L50.3602 39.7267L50.6087 39.9959L79.7037 13.441L79.4552 13.1718Z" fill="#3F3D56"/>
<path d="M81.8789 13.3994L51.4709 40.0956L51.7143 40.3698L82.1224 13.6737L81.8789 13.3994Z" fill="#3F3D56"/>
<path d="M83.781 13.9314L52.2147 40.0979L52.4503 40.3789L84.0166 14.2125L83.781 13.9314Z" fill="#3F3D56"/>
</svg>
