<svg width="50" height="50" viewBox="0 0 50 50" fill="none" xmlns="http://www.w3.org/2000/svg">
<path d="M25 2.08337C12.3437 2.08337 2.08333 12.3438 2.08333 25C2.08333 37.6568 12.3437 47.9167 25 47.9167C37.6568 47.9167 47.9167 37.6568 47.9167 25C47.9167 12.3438 37.6568 2.08337 25 2.08337ZM25 43.75C14.6448 43.75 6.24999 35.3552 6.24999 25C6.24999 14.6448 14.6448 6.25004 25 6.25004C35.3552 6.25004 43.75 14.6448 43.75 25C43.75 35.3552 35.3552 43.75 25 43.75Z" fill="#54B5C3"/>
<path d="M27.0833 24.1369V12.5C27.0833 11.3494 26.1505 10.4166 25 10.4166C23.8495 10.4166 22.9167 11.3494 22.9167 12.5V25C22.9167 25.0046 22.9182 25.0093 22.9182 25.014C22.9187 25.1458 22.9318 25.2776 22.9578 25.4072C22.9703 25.4713 22.9937 25.5291 23.012 25.5916C23.0323 25.6604 23.0479 25.7302 23.0755 25.7974C23.1057 25.8692 23.1463 25.9349 23.1838 26.0026C23.212 26.0546 23.2344 26.1067 23.2672 26.1562C23.3437 26.2713 23.4307 26.3791 23.5281 26.4755L29.4193 32.3671C30.2328 33.1807 31.5531 33.1807 32.3661 32.3671C33.1797 31.5536 33.1797 30.2333 32.3661 29.4213L27.0833 24.1369Z" fill="#54B5C3"/>
</svg>
