<svg width="286" height="196" viewBox="0 0 286 196" fill="none" xmlns="http://www.w3.org/2000/svg">
<path opacity="0.1" d="M27.8142 148.198C26.5964 150.799 28.3394 153.605 27.7347 156.291C26.9711 159.68 22.5937 162.317 17.8785 164C13.1633 165.683 7.89745 166.705 3.3015 168.518C1.31437 169.3 -0.757925 170.743 0.275383 172.071C0.633067 172.531 1.30301 172.853 1.95877 173.155C15.3464 179.3 31.8935 182.637 48.4264 182.53C65.9132 182.414 83.0365 178.577 100.509 179.017C123.043 179.582 144.839 187.223 167.123 185.021C176.582 184.08 185.365 181.415 194.577 179.748C208.124 177.3 222.371 177.055 236.4 176.25C246.935 175.645 258.974 174.078 264.007 168.188C267.647 163.929 266.119 158.304 260.993 154.698C255.866 151.092 247.676 149.55 240.111 150.251C236.043 150.626 232 151.601 227.932 151.214C225.571 150.988 223.39 150.316 221.236 149.655C204.569 144.516 187.304 139.388 168.804 138.642C138.713 137.419 110.822 147.834 81.5065 152.338C76.9417 153.038 71.9853 153.577 67.6732 152.403C63.1312 151.163 60.1505 148.235 55.5999 147.001C53.4397 146.413 51.0324 146.244 48.909 145.606C43.0725 143.849 45.7864 141.435 37.6845 143.064C33.452 143.923 29.1768 145.298 27.8142 148.198Z" fill="#8B30D2"/>
<path d="M31.1355 59.4702C31.1355 59.4702 46.9644 75.2159 38.0337 98.5803C29.103 121.945 53.363 160.798 53.363 160.798C53.363 160.798 53.1018 160.761 52.6221 160.676C20.0956 154.967 3.94304 117.983 22.0203 90.5154C28.7396 80.2903 34.2581 68.3088 31.1355 59.4702Z" fill="#8B30D2"/>
<path opacity="0.1" d="M31.1355 59.4702C31.1355 59.4702 46.9644 75.2159 38.0337 98.5803C29.103 121.945 53.363 160.798 53.363 160.798C53.363 160.798 53.1018 160.761 52.6221 160.676C20.0956 154.967 3.94304 117.983 22.0203 90.5154C28.7396 80.2903 34.2581 68.3088 31.1355 59.4702Z" fill="black"/>
<path d="M31.1355 59.4702C31.1355 59.4702 40.0719 78.7711 31.1355 94.5168C22.1991 110.262 29.6026 154.45 53.346 160.798" stroke="#535461" stroke-miterlimit="10"/>
<path d="M2.94379 123.153C2.94379 123.153 21.0068 120.293 22.6533 136.394C24.2998 152.496 57.3826 154.729 57.3826 154.729C57.3826 154.729 57.1669 154.876 56.761 155.139C29.4464 172.971 3.3327 166.502 7.26722 142.816C8.73201 134.002 8.60995 125.164 2.94379 123.153Z" fill="#8B30D2"/>
<path opacity="0.2" d="M2.94379 123.153C2.94379 123.153 21.0068 120.293 22.6533 136.394C24.2998 152.496 57.3826 154.729 57.3826 154.729C57.3826 154.729 57.1669 154.876 56.761 155.139C29.4464 172.971 3.3327 166.502 7.26722 142.816C8.73201 134.002 8.60995 125.164 2.94379 123.153Z" fill="#F5F5F5"/>
<path d="M2.94379 123.153C2.94379 123.153 16.9644 126.214 15.8119 138.896C14.6593 151.578 36.6313 166.779 57.3826 154.729" stroke="#535461" stroke-miterlimit="10"/>
<path d="M192.11 160.442H43.521V68.1112H62.5236L70.3416 77.7179H192.11V160.442Z" fill="#8B30D2"/>
<path opacity="0.1" d="M192.11 160.442H43.521V68.1112H62.5236L70.3416 77.7179H192.11V160.442Z" fill="black"/>
<path d="M138.046 29.7787L71.1727 53.8398L108.828 157.399L175.702 133.338L138.046 29.7787Z" fill="#F1F1F4"/>
<path d="M102.698 54.0165L83.8029 60.8149L85.4109 65.2372L104.306 58.4387L102.698 54.0165Z" fill="white"/>
<path d="M133.195 57.1114L91.623 71.8773L93.0807 75.9382L134.653 61.1722L133.195 57.1114Z" fill="white"/>
<path d="M136.311 65.7895L94.7385 80.5554L96.1962 84.6163L137.768 69.8503L136.311 65.7895Z" fill="white"/>
<path d="M139.423 74.4674L97.8512 89.2334L99.3088 93.2943L140.881 78.5283L139.423 74.4674Z" fill="white"/>
<path d="M142.539 83.1427L100.967 97.9087L102.424 101.97L143.996 87.2036L142.539 83.1427Z" fill="white"/>
<path d="M145.653 91.8181L104.081 106.584L105.539 110.645L147.111 95.879L145.653 91.8181Z" fill="white"/>
<path d="M148.769 100.496L107.197 115.262L108.654 119.323L150.226 104.557L148.769 100.496Z" fill="white"/>
<path d="M156.865 114.896L146.102 118.719L149.945 129.426L160.708 125.603L156.865 114.896Z" fill="white"/>
<path d="M57.5846 35.5147L20.0791 98.2991L118.337 156.38L155.843 93.5955L57.5846 35.5147Z" fill="url(#paint0_linear)"/>
<path d="M58.5284 37.3898L22.1859 98.2272L117.396 154.506L153.738 93.6688L58.5284 37.3898Z" fill="#F1F1F4"/>
<path d="M46.6032 78.4574L36.3346 95.6471L40.4003 98.0504L50.6689 80.8607L46.6032 78.4574Z" fill="white"/>
<path d="M71.7403 60.9352L49.1903 98.684L52.9168 100.887L75.4668 63.1379L71.7403 60.9352Z" fill="white"/>
<path d="M79.703 65.6431L57.153 103.392L60.8795 105.595L83.4295 67.8458L79.703 65.6431Z" fill="white"/>
<path d="M87.5963 70.2098L65.0836 107.973L68.8115 110.172L91.3242 72.4089L87.5963 70.2098Z" fill="white"/>
<path d="M95.626 75.0544L73.076 112.803L76.8025 115.006L99.3525 77.2572L95.626 75.0544Z" fill="white"/>
<path d="M103.589 79.7624L81.0387 117.511L84.7652 119.714L107.315 81.9651L103.589 79.7624Z" fill="white"/>
<path d="M111.554 84.4702L89.0042 122.219L92.7307 124.422L115.281 86.673L111.554 84.4702Z" fill="white"/>
<path d="M126.925 90.2667L121.096 100.044L130.925 105.842L136.754 96.0648L126.925 90.2667Z" fill="white"/>
<path d="M272.004 36.8881C272.004 36.7488 271.99 36.616 271.962 36.4899C271.933 36.3638 271.909 36.2179 271.888 36.0522C271.835 35.7661 271.774 35.4893 271.706 35.222C271.672 35.0883 271.637 34.9575 271.601 34.8295C271.194 33.3462 270.466 31.9691 269.469 30.7942L269.299 30.6022C269.185 30.478 269.073 30.3603 268.961 30.2492C268.849 30.1382 268.74 30.0356 268.632 29.9414C268.524 29.8454 268.419 29.7579 268.317 29.6732C268.115 29.5094 267.925 29.371 267.749 29.2581C267.573 29.1451 267.51 29.1028 267.411 29.0435C267.168 28.9005 266.897 28.8127 266.616 28.7865L264.865 28.6171L262.497 28.3855L253.95 25.1014L253.612 25.22C253.362 24.5386 253.151 23.8437 252.979 23.1388C253.238 23.0277 253.468 22.8609 253.654 22.6503C253.856 22.4951 254.016 22.2922 254.12 22.0601C254.336 21.5688 253.924 20.5183 254.006 19.9197C254.143 18.9567 254.648 18.0249 255.06 17.1523C255.94 15.2773 256.581 13.247 256.479 11.1884C256.377 9.12981 255.426 7.043 253.669 5.89088C252.76 5.29505 251.681 4.97596 250.748 4.43378C250.012 4.01021 249.365 3.45956 248.664 2.98233C246.937 1.84605 244.944 1.17235 242.879 1.02642C240.814 0.880484 238.746 1.26725 236.875 2.1493C235.097 3.01622 233.582 4.30953 231.904 5.34588C230.226 6.38222 228.25 7.18419 226.289 6.87639C226.261 6.95422 226.241 7.03463 226.229 7.11642L226.065 7.09665C225.727 8.00875 226.556 8.90673 227.319 9.5308C228.767 10.7112 230.411 11.8915 232.301 11.9311C233.031 11.948 233.803 11.7955 234.467 12.092C234.611 12.1581 234.747 12.2416 234.87 12.3405C234.45 14.0068 234.504 15.7566 235.025 17.3942C235.547 19.0319 236.517 20.4929 237.826 21.614L233.459 20.0609C233.459 20.0609 233.278 20.154 232.994 20.3291L226.928 16.3391C226.928 16.3391 214.769 11.9593 211.391 18.7478C208.013 25.5363 226.028 22.0319 226.028 22.0319L229.883 24.1272C229.755 24.9144 229.904 25.7213 230.306 26.4117L240.809 32.833C238.686 33.4797 235.197 34.5273 234.564 34.5273C233.664 34.5273 231.186 35.4027 229.61 38.9071C228.035 42.4115 222.405 59.4957 217.452 62.3449C212.498 65.1941 199.437 84.2465 199.437 84.2465L199.497 84.3962C199.264 84.4564 199.036 84.5233 198.812 84.5967C195.545 85.6472 193.348 87.8639 192.022 89.657C191.801 89.9618 191.665 90.319 191.626 90.6927C191.588 91.0665 191.649 91.4438 191.803 91.7868C191.957 92.1299 192.199 92.4267 192.504 92.6476C192.81 92.8685 193.168 93.0057 193.544 93.0456C198.699 93.6894 201.515 91.3513 202.869 89.5666C202.957 89.4509 203.039 89.3379 203.116 89.2278C203.519 89.3981 203.971 89.4181 204.388 89.2842L210.693 84.2465C210.693 84.2465 205.759 89.0471 208.652 93.4212L208.433 93.7233C203.556 100.598 199.973 108.296 197.859 116.444C197.859 116.444 195.156 118.421 194.932 126.299C194.708 134.178 192.005 146.888 192.005 146.888C192.005 146.888 190.203 162.001 191.329 166.601C191.329 166.601 191.46 166.784 191.699 167.064C191.613 167.163 191.523 167.27 191.415 167.38C190.432 168.431 188.658 169.879 186.589 169.447C183.435 168.789 183.435 174.265 187.94 174.705C190.841 174.988 196.539 176.27 200.232 177.145C200.633 177.247 201.053 177.251 201.456 177.158C201.86 177.064 202.235 176.876 202.549 176.608C202.864 176.34 203.11 176.001 203.265 175.62C203.42 175.238 203.481 174.824 203.442 174.414C203.221 172.452 202.821 170.077 202.091 168.385C202.046 168.281 202 168.179 201.952 168.078C202.086 167.956 202.216 167.829 202.35 167.694C202.35 167.694 202.35 158.056 203.925 155.427C203.925 155.427 208.203 135.496 207.979 130.459C207.803 126.505 219.076 111.166 223.984 104.683L223.944 104.437C225.199 102.782 225.994 101.766 225.994 101.766L229.82 125.638C229.82 125.638 231.657 130.896 233.908 133.737C233.908 133.737 243.591 151.917 244.715 157.61C245.567 161.927 247.327 164.48 248.122 165.463C248.028 165.556 247.931 165.649 247.838 165.745C246.813 166.674 245.3 167.606 243.58 167.25C240.437 166.589 240.437 172.065 244.942 172.503C247.843 172.785 253.541 174.067 257.234 174.942C257.635 175.044 258.055 175.049 258.459 174.955C258.862 174.862 259.237 174.673 259.552 174.406C259.866 174.138 260.112 173.799 260.267 173.417C260.423 173.035 260.484 172.622 260.445 172.212C260.189 169.933 259.687 167.098 258.716 165.435C258.635 165.293 258.549 165.161 258.46 165.036C258.803 164.9 259.109 164.686 259.355 164.412C259.355 164.412 253.495 150.601 253.495 146.876C253.495 146.876 251.017 132.639 242.688 127.392C242.688 127.392 243.477 109.588 245.848 99.6759C245.907 99.4312 245.966 99.1912 246.027 98.9559C248.159 98.6255 250.35 98.1821 252.596 97.6033L252.82 91.0322L253.955 96.2902L266.554 88.6178C266.554 88.6178 266.443 87.237 266.23 85.1191C266.122 84.0602 265.992 82.8177 265.833 81.4707C265.708 80.392 265.563 79.2484 265.407 78.0821C265.367 77.7903 265.326 77.4966 265.285 77.2011C265.12 76.0207 264.938 74.8262 264.743 73.6572C264.669 73.2185 264.593 72.7846 264.516 72.3554C264.413 71.7906 264.305 71.2259 264.195 70.678C264.14 70.4051 264.083 70.1359 264.024 69.8704C263.966 69.605 263.907 69.3452 263.848 69.091C263.79 68.8369 263.73 68.5875 263.67 68.3427L263.579 67.9813C263.516 67.7441 263.454 67.5125 263.391 67.2866C263.127 66.3503 262.974 65.3865 262.934 64.4148C262.919 64.0383 262.919 63.6523 262.934 63.257C262.949 62.8617 262.987 62.4776 263.048 62.1049C263.074 61.9166 263.107 61.7284 263.144 61.5401C263.29 60.7771 263.503 60.0286 263.783 59.3036C263.923 58.9403 264.08 58.5817 264.254 58.2278C264.663 57.4004 265.106 56.5024 265.549 55.5564C265.774 55.0839 266.001 54.601 266.23 54.1078C266.459 53.6146 266.69 53.1138 266.923 52.6055C269.114 47.7768 271.277 42.3945 271.857 38.8619C271.916 38.4892 271.962 38.139 271.984 37.8086C272.011 37.5026 272.018 37.195 272.004 36.8881Z" fill="url(#paint1_linear)"/>
<path d="M234.394 22.5063L226.967 17.5081C226.967 17.5081 215.172 13.1623 211.896 19.8971C208.62 26.6319 226.09 23.1558 226.09 23.1558L233.516 27.2842L234.394 22.5063Z" fill="#F7BBC3"/>
<path d="M191.524 2.22305L153.373 61.9546L246.852 121.035L285.004 61.3032L191.524 2.22305Z" fill="#F1F1F4"/>
<path d="M178.372 42.9183L167.593 59.7955L171.585 62.3184L182.364 45.4412L178.372 42.9183Z" fill="white"/>
<path d="M204.026 26.1512L180.353 63.2137L184.012 65.5261L207.685 28.4635L204.026 26.1512Z" fill="white"/>
<path d="M211.844 31.0912L188.172 68.1538L191.831 70.4662L215.503 33.4036L211.844 31.0912Z" fill="white"/>
<path d="M219.662 36.0329L195.99 73.0955L199.648 75.4078L223.321 38.3453L219.662 36.0329Z" fill="white"/>
<path d="M228.118 42.3801L204.281 79.265L207.922 81.5935L231.759 44.7086L228.118 42.3801Z" fill="white"/>
<path d="M235.298 45.9145L211.626 82.9771L215.284 85.2894L238.957 48.2268L235.298 45.9145Z" fill="white"/>
<path d="M243.772 52.3617L219.935 89.2466L223.577 91.5751L247.414 54.6902L243.772 52.3617Z" fill="white"/>
<path d="M258.4 57.2616L252.271 66.8573L261.918 72.954L268.047 63.3583L258.4 57.2616Z" fill="white"/>
<path d="M256.363 174.832C252.78 173.962 247.253 172.692 244.44 172.412C240.071 171.977 240.071 166.547 243.128 167.199C244.786 167.552 246.251 166.635 247.247 165.706C247.552 165.417 247.838 165.108 248.102 164.782C248.466 164.349 248.966 164.051 249.521 163.935C251.159 163.579 254.568 163.043 256.666 164.167C257.152 164.465 257.545 164.891 257.802 165.398C258.744 167.061 259.221 169.871 259.48 172.133C259.521 172.534 259.466 172.939 259.317 173.314C259.168 173.689 258.931 174.023 258.626 174.287C258.32 174.552 257.955 174.74 257.561 174.834C257.167 174.929 256.756 174.929 256.363 174.832Z" fill="#B77983"/>
<path d="M201.106 177.007C197.524 176.137 191.997 174.866 189.183 174.587C184.815 174.152 184.815 168.721 187.872 169.374C189.859 169.803 191.593 168.363 192.544 167.324C192.661 167.197 192.766 167.075 192.857 166.962C193.221 166.529 193.721 166.231 194.276 166.115C195.914 165.759 199.323 165.223 201.421 166.347C202.034 166.677 202.526 167.4 202.917 168.323C203.624 170.001 204.013 172.356 204.229 174.301C204.272 174.703 204.217 175.11 204.068 175.486C203.92 175.862 203.682 176.198 203.376 176.463C203.069 176.729 202.703 176.917 202.308 177.011C201.913 177.106 201.501 177.104 201.106 177.007Z" fill="#B77983"/>
<path opacity="0.1" d="M202.909 168.318C197.694 173.663 193.223 168.219 192.544 167.321C192.661 167.194 192.766 167.072 192.857 166.959C193.221 166.526 193.721 166.228 194.276 166.112C195.914 165.756 199.323 165.22 201.421 166.344C202.026 166.66 202.517 167.383 202.909 168.318Z" fill="black"/>
<path opacity="0.1" d="M257.799 165.389C255.528 166.925 247.934 166.547 247.934 166.547C247.685 166.282 247.455 165.999 247.247 165.7C247.552 165.413 247.837 165.106 248.102 164.782C248.466 164.349 248.966 164.051 249.521 163.935C251.159 163.579 254.569 163.043 256.666 164.167C257.15 164.463 257.542 164.886 257.799 165.389Z" fill="black"/>
<path d="M258.199 164.376C256.669 166.33 247.934 165.898 247.934 165.898C247.934 165.898 245.314 163.291 244.221 157.641C243.128 151.99 233.738 133.96 233.738 133.96C231.555 131.136 229.806 125.921 229.806 125.921L226.093 102.24C226.093 102.24 208.183 125.703 208.402 130.701C208.62 135.7 204.47 155.464 204.47 155.464C202.94 158.07 202.94 167.629 202.94 167.629C197.262 173.494 192.456 166.541 192.456 166.541C191.364 161.978 193.112 146.989 193.112 146.989C193.112 146.989 195.732 134.389 195.951 126.567C196.17 118.745 198.79 116.791 198.79 116.791C200.83 108.731 204.303 101.098 209.046 94.2542C210.366 92.3736 211.238 91.3711 211.238 91.3711L246.62 95.4995C246.052 96.6291 245.544 98.2471 245.098 100.162C242.799 109.991 242.035 127.655 242.035 127.655C250.117 132.873 252.519 146.992 252.519 146.992C252.519 150.686 258.199 164.376 258.199 164.376Z" fill="#8499F0"/>
<g opacity="0.05">
<path opacity="0.05" d="M224.143 105.132L223.688 102.237C223.688 102.237 205.779 125.7 205.997 130.699C206.216 135.697 202.069 155.464 202.069 155.464C200.538 158.07 200.538 167.629 200.538 167.629C199.349 168.857 198.196 169.523 197.132 169.809C198.852 170.258 200.944 169.93 203.173 167.629C203.173 167.629 203.173 158.07 204.703 155.464C204.703 155.464 208.853 135.697 208.635 130.696C208.45 126.788 219.385 111.564 224.143 105.132Z" fill="black"/>
<path opacity="0.05" d="M252.738 146.992C252.738 146.992 250.336 132.873 242.254 127.657C242.254 127.657 243.018 109.997 245.317 100.164C245.766 98.2499 246.268 96.6346 246.839 95.5023L211.459 91.3625C211.459 91.3625 211.377 91.4586 211.226 91.6449L244.221 95.4938C243.653 96.6233 243.145 98.2414 242.7 100.156C240.4 109.986 239.637 127.649 239.637 127.649C247.716 132.873 250.117 146.992 250.117 146.992C250.117 150.686 255.795 164.373 255.795 164.373C254.895 165.525 251.488 165.847 248.843 165.917C250.941 165.971 257.149 165.991 258.415 164.373C258.418 164.376 252.738 150.686 252.738 146.992Z" fill="black"/>
</g>
<path d="M204.689 88.3354C204.425 88.9778 204.076 89.5827 203.653 90.1342C202.338 91.8934 199.607 94.2231 194.605 93.5849C194.238 93.5375 193.888 93.3963 193.592 93.1749C193.295 92.9535 193.061 92.6595 192.913 92.3215C192.764 91.9835 192.706 91.613 192.744 91.2461C192.782 90.8791 192.915 90.5282 193.129 90.2274C194.412 88.4484 196.536 86.2486 199.715 85.2066C200.618 84.9078 201.554 84.7182 202.503 84.6418L204.689 88.3354Z" fill="#F7BBC3"/>
<path d="M250.813 27.575L233.298 21.2017C233.298 21.2017 228.273 23.8081 230.24 27.5016L247.273 38.1475L250.813 27.575Z" fill="#D39999"/>
<path opacity="0.1" d="M250.813 27.575L233.298 21.2017C233.298 21.2017 228.273 23.8081 230.24 27.5016L247.273 38.1475L250.813 27.575Z" fill="black"/>
<path d="M251.429 17.0732C251.429 17.0732 251.21 27.2842 255.798 30.7603C260.385 34.2365 242.475 36.1906 242.475 36.1906C242.475 36.1906 245.314 25.7622 242.475 20.3319C239.637 14.9017 251.429 17.0732 251.429 17.0732Z" fill="#F7BBC3"/>
<path opacity="0.1" d="M246.623 95.5023C246.055 96.6319 245.547 98.2499 245.101 100.165C223.978 103.372 209.276 94.6326 209.276 94.6326C209.197 94.5055 209.12 94.3813 209.049 94.257C210.369 92.3764 211.241 91.3739 211.241 91.3739L246.623 95.5023Z" fill="black"/>
<path opacity="0.1" d="M204.689 88.3354C204.425 88.9779 204.076 89.5827 203.652 90.1342C201.631 89.801 200.013 85.9549 199.715 85.2038C200.618 84.905 201.554 84.7154 202.503 84.639L204.689 88.3354Z" fill="black"/>
<path d="M253.175 26.197L245.311 29.0209L242.035 33.3667C242.035 33.3667 235.265 35.5383 234.391 35.5383C233.516 35.5383 231.115 36.408 229.585 39.8841C228.054 43.3603 222.598 60.3004 217.792 63.1243C212.986 65.9481 200.32 84.8678 200.32 84.8678C200.32 84.8678 202.503 90.7329 205.126 89.8659L211.241 84.8678C211.241 84.8678 206.435 89.6485 209.276 93.9916C209.276 93.9916 227.186 104.637 251.857 98.12L252.076 91.6026L253.169 96.8154L265.418 89.2023C265.418 89.2023 264.322 75.1792 262.35 68.0406C261.534 65.0394 261.837 61.8464 263.201 59.0495C266.372 52.4756 271.266 41.4965 270.67 37.4923C269.966 32.7737 267.286 30.7152 266.264 30.1052C266.03 29.9642 265.767 29.8773 265.495 29.8511L261.498 29.4529L253.175 26.197Z" fill="#D39999"/>
<path opacity="0.05" d="M239.742 48.0337C239.742 48.0337 235.373 68.2382 230.57 71.4969C225.766 74.7556 212.879 85.184 212.441 86.9235" fill="black"/>
<path d="M237.777 47.3813C237.777 47.3813 233.408 67.5859 228.605 70.8446C223.802 74.1033 210.914 84.5317 210.477 86.2796" fill="#D39999"/>
<path opacity="0.1" d="M241.927 33.2594C241.927 33.2594 256.998 28.2612 261.364 29.5659L241.927 33.2594Z" fill="black"/>
<g opacity="0.05">
<path opacity="0.05" d="M263.178 59.0523C266.349 52.4784 271.243 41.4994 270.647 37.4952C269.943 32.7765 267.263 30.718 266.241 30.108C266.007 29.967 265.745 29.8802 265.472 29.8539L263.769 29.6844C263.947 29.7271 264.117 29.7966 264.274 29.8906C265.296 30.5118 267.965 32.5591 268.68 37.2777C269.276 41.2791 264.382 52.261 261.211 58.8349C259.847 61.6318 259.545 64.8248 260.36 67.8259C262.347 74.9646 263.428 88.9877 263.428 88.9877L252.896 95.5362L253.163 96.8097L265.418 89.2023C265.418 89.2023 264.322 75.1792 262.35 68.0406C261.528 65.043 261.823 61.8512 263.178 59.0523Z" fill="black"/>
<path opacity="0.05" d="M259.508 29.2411L261.401 29.4275L253.175 26.197L252.437 26.4625L259.508 29.2411Z" fill="black"/>
</g>
<path opacity="0.05" d="M237.777 68.4557C237.777 68.4557 244.548 64.7621 246.731 65.6319C248.914 66.5016 256.996 65.4144 256.996 65.4144" fill="black"/>
<path opacity="0.05" d="M250.657 19.7898C250.407 17.6126 251.42 17.943 251.42 17.943C251.42 17.943 239.625 15.7715 242.467 21.2017C243.177 22.5628 243.531 24.2345 243.665 25.9796H243.776C247.074 25.9824 248.985 22.3369 250.657 19.7898Z" fill="black"/>
<path d="M243.784 25.1098C248.97 25.1098 253.175 20.9276 253.175 15.7686C253.175 10.6096 248.97 6.42737 243.784 6.42737C238.598 6.42737 234.393 10.6096 234.393 15.7686C234.393 20.9276 238.598 25.1098 243.784 25.1098Z" fill="#F7BBC3"/>
<path opacity="0.1" d="M254.032 18.5331C254.884 16.675 255.508 14.6588 255.403 12.6031C255.298 10.5473 254.381 8.48876 252.678 7.34793C251.798 6.75775 250.759 6.44148 249.839 5.90495C249.127 5.4842 248.496 4.9392 247.818 4.4648C246.153 3.33919 244.22 2.67002 242.212 2.52476C240.205 2.37951 238.194 2.76329 236.383 3.63742C234.66 4.48456 233.19 5.78071 231.557 6.80858C229.925 7.83645 228.015 8.62995 226.11 8.32498C225.783 9.2286 226.587 10.1209 227.328 10.7394C228.733 11.9112 230.325 13.0803 232.154 13.1198C232.863 13.1368 233.61 12.9843 234.254 13.2808C234.688 13.5184 235.057 13.8589 235.327 14.272C236.21 15.4375 236.957 16.6983 237.556 18.0305C237.8 18.5755 238.05 19.16 238.555 19.4904C239.407 20.0269 240.494 19.5808 241.493 19.5412C243.049 19.4819 244.445 20.4533 245.598 21.4981C246.751 22.543 247.843 23.729 249.288 24.2796C250.373 24.6891 252.542 24.675 253.095 23.3845C253.302 22.8988 252.905 21.8568 252.987 21.2609C253.141 20.3206 253.634 19.4 254.032 18.5331Z" fill="black"/>
<path d="M254.251 18.3157C255.102 16.4576 255.727 14.4414 255.622 12.3857C255.517 10.3299 254.6 8.27135 252.896 7.13052C252.016 6.54034 250.977 6.22407 250.058 5.68754C249.345 5.26679 248.715 4.72179 248.036 4.24739C246.372 3.12178 244.438 2.45262 242.431 2.30736C240.423 2.1621 238.413 2.54588 236.602 3.42001C234.879 4.26716 233.408 5.5633 231.776 6.59117C230.144 7.61905 228.233 8.41254 226.328 8.10757C226.002 9.01119 226.805 9.90352 227.546 10.5219C228.952 11.6938 230.544 12.8629 232.372 12.9024C233.082 12.9194 233.828 12.7669 234.473 13.0634C234.907 13.301 235.276 13.6415 235.546 14.0546C236.428 15.2201 237.176 16.4809 237.774 17.8131C238.018 18.3581 238.268 18.9426 238.774 19.273C239.625 19.8095 240.712 19.3634 241.712 19.3238C243.267 19.2645 244.664 20.2359 245.817 21.2807C246.969 22.3256 248.062 23.5116 249.507 24.0622C250.591 24.4717 252.76 24.4575 253.314 23.1671C253.521 22.6814 253.124 21.6394 253.206 21.0435C253.359 20.106 253.853 19.1826 254.251 18.3157Z" fill="#9B6C7A"/>
<path d="M192.11 164.361H43.521V72.0306H62.5236L70.3416 81.6373H192.11V164.361Z" fill="#8B30D2"/>
<path d="M51.9436 173.573C51.9436 173.573 45.5365 172.299 43.8276 170.599C42.1187 168.899 34.4313 165.926 33.5768 168.058C32.7224 170.19 22.0458 177.405 29.3187 178.681C36.5916 179.957 46.4023 180.375 48.5399 179.528C50.6775 178.681 51.9436 173.573 51.9436 173.573Z" fill="#A8A8A8"/>
<path opacity="0.2" d="M29.3073 177.882C36.5689 179.155 46.391 179.576 48.5286 178.729C50.1552 178.082 51.285 174.973 51.7307 173.525L51.9436 173.57C51.9436 173.57 50.6633 178.67 48.5371 179.517C46.4108 180.364 36.5774 179.94 29.3158 178.67C27.2208 178.303 26.6219 177.439 26.8461 176.343C27.0165 177.06 27.746 177.608 29.3073 177.882Z" fill="black"/>
<path d="M184.338 185.252C184.338 185.252 174.564 183.306 171.955 180.714C169.346 178.122 157.619 173.584 156.316 176.826C155.013 180.068 138.716 191.086 149.787 193.032C160.858 194.977 175.853 195.624 179.111 194.328C182.37 193.032 184.338 185.252 184.338 185.252Z" fill="#A8A8A8"/>
<path opacity="0.2" d="M149.801 191.826C160.872 193.772 175.867 194.418 179.126 193.122C181.607 192.134 183.333 187.39 184.014 185.184L184.34 185.252C184.34 185.252 182.385 193.02 179.12 194.325C175.855 195.63 160.872 194.975 149.796 193.029C146.596 192.464 145.682 191.148 146.029 189.482C146.307 190.569 147.42 191.408 149.801 191.826Z" fill="black"/>
<path opacity="0.1" d="M132.848 115.371H99.9186V121.018H132.848V115.371Z" fill="black"/>
<defs>
<linearGradient id="paint0_linear" x1="137.091" y1="124.986" x2="39.1012" y2="66.4505" gradientUnits="userSpaceOnUse">
<stop stop-color="#808080" stop-opacity="0.25"/>
<stop offset="0.54" stop-color="#808080" stop-opacity="0.12"/>
<stop offset="1" stop-color="#808080" stop-opacity="0.1"/>
</linearGradient>
<linearGradient id="paint1_linear" x1="79229.8" y1="129176" x2="79229.8" y2="19209.9" gradientUnits="userSpaceOnUse">
<stop stop-color="#808080" stop-opacity="0.25"/>
<stop offset="0.54" stop-color="#808080" stop-opacity="0.12"/>
<stop offset="1" stop-color="#808080" stop-opacity="0.1"/>
</linearGradient>
</defs>
</svg>
