<svg width="252" height="164" viewBox="0 0 252 164" fill="none" xmlns="http://www.w3.org/2000/svg">
<path d="M84.9966 163.639H11.0136C11.0136 163.639 9.51398 141.633 18.3869 141.383C27.2599 141.133 26.2601 151.135 37.3825 137.382C48.505 123.628 62.0019 124.378 63.7515 132.505C65.5011 140.632 60.3772 147.134 69.7501 145.134C79.1229 143.133 92.6198 148.385 84.9966 163.639Z" fill="#8B30D2"/>
<path d="M46.7563 163.644L46.5065 163.634C47.0889 149.145 50.1217 139.836 52.5634 134.578C55.2146 128.869 57.7693 126.558 57.7948 126.535L57.9609 126.722C57.9357 126.745 55.4108 129.033 52.7809 134.703C50.3527 139.939 47.3364 149.21 46.7563 163.644Z" fill="#F2F2F2"/>
<path d="M73.5325 163.674L73.2926 163.604C76.1818 153.682 82.9856 147.418 83.054 147.355L83.222 147.541C83.1541 147.602 76.4013 153.822 73.5325 163.674Z" fill="#F2F2F2"/>
<path d="M22.6663 163.656L22.4187 163.622C23.3989 156.548 21.6283 151.061 19.9702 147.702C18.1749 144.066 16.1265 142.081 16.106 142.061L16.2789 141.88C16.2997 141.9 18.3798 143.917 20.1943 147.592C21.8678 150.981 23.6553 156.52 22.6663 163.656Z" fill="#F2F2F2"/>
<path d="M95.0374 163.973H3.03389L3.01267 163.662C2.95978 162.886 1.78612 144.589 7.71168 138.06C9.03635 136.601 10.632 135.835 12.4543 135.783C16.3168 135.673 18.7441 137.121 20.7019 138.283C24.392 140.473 26.8297 141.92 35.6931 130.96C45.2949 119.086 55.6548 116.531 61.6104 117.952C65.4584 118.87 68.1105 121.464 68.8868 125.07C69.6218 128.484 69.3877 131.692 69.1996 134.269C68.9983 137.027 68.8393 139.206 69.9715 140.193C70.9166 141.017 72.803 141.092 75.9078 140.429C82.2231 139.081 91.0349 140.234 95.4578 145.952C97.8375 149.028 99.712 154.619 95.1298 163.788L95.0374 163.973ZM3.66178 163.304H94.6234C98.0379 156.373 98.1446 150.518 94.929 146.361C90.8716 141.116 82.3593 139.736 76.0472 141.083C72.674 141.803 70.664 141.684 69.5322 140.698C68.1479 139.491 68.3177 137.165 68.5325 134.221C68.7177 131.686 68.9479 128.531 68.2331 125.21C67.5133 121.867 65.0429 119.458 61.4554 118.603C55.6898 117.226 45.6193 119.749 36.2129 131.38C26.9863 142.79 24.2068 141.141 20.3608 138.858C18.3789 137.682 16.1286 136.348 12.4732 136.452C10.8397 136.498 9.40434 137.19 8.20669 138.51C2.88108 144.377 3.53133 160.831 3.66178 163.304Z" fill="#CFCCE0"/>
<path d="M185.948 116.822L159.182 112.166C163.966 102.238 166.152 92.4285 164.284 82.8048L191.05 87.4612C186.888 96.6566 185.132 106.761 185.948 116.822Z" fill="#F2F2F2"/>
<path d="M183.675 91.6629L169.809 89.2505L169.697 89.8958L183.563 92.3082L183.675 91.6629Z" fill="#3F3D56"/>
<path d="M183.227 94.244L169.36 91.8317L169.248 92.477L183.115 94.8893L183.227 94.244Z" fill="#3F3D56"/>
<path d="M182.778 96.8263L168.912 94.4139L168.799 95.0592L182.666 97.4716L182.778 96.8263Z" fill="#3F3D56"/>
<path d="M182.33 99.4064L168.463 96.994L168.351 97.6393L182.218 100.052L182.33 99.4064Z" fill="#3F3D56"/>
<path d="M181.881 101.988L168.014 99.5752L167.902 100.22L181.769 102.633L181.881 101.988Z" fill="#3F3D56"/>
<path d="M181.433 104.569L167.566 102.156L167.454 102.802L181.32 105.214L181.433 104.569Z" fill="#3F3D56"/>
<path d="M180.984 107.15L167.117 104.738L167.005 105.383L180.872 107.795L180.984 107.15Z" fill="#3F3D56"/>
<path d="M180.535 109.731L166.669 107.319L166.557 107.964L180.423 110.376L180.535 109.731Z" fill="#3F3D56"/>
<path d="M197.869 126.253L171.102 121.596C175.887 111.668 178.073 101.859 176.205 92.2354L202.971 96.8917C198.808 106.087 197.052 116.191 197.869 126.253Z" fill="#F2F2F2"/>
<path d="M195.596 101.093L181.73 98.681L181.617 99.3263L195.484 101.739L195.596 101.093Z" fill="#3F3D56"/>
<path d="M195.148 103.675L181.281 101.262L181.169 101.908L195.036 104.32L195.148 103.675Z" fill="#3F3D56"/>
<path d="M194.699 106.257L180.832 103.844L180.72 104.49L194.587 106.902L194.699 106.257Z" fill="#3F3D56"/>
<path d="M194.251 108.837L180.384 106.425L180.272 107.07L194.138 109.482L194.251 108.837Z" fill="#3F3D56"/>
<path d="M193.802 111.418L179.935 109.006L179.823 109.651L193.69 112.063L193.802 111.418Z" fill="#3F3D56"/>
<path d="M193.353 113.999L179.487 111.587L179.375 112.232L193.241 114.645L193.353 113.999Z" fill="#3F3D56"/>
<path d="M192.905 116.58L179.038 114.168L178.926 114.813L192.793 117.226L192.905 116.58Z" fill="#3F3D56"/>
<path d="M192.456 119.162L178.59 116.749L178.477 117.395L192.344 119.807L192.456 119.162Z" fill="#3F3D56"/>
<path d="M205.164 163.614H157.421L157.412 163.347L155.133 98.1163H207.453L205.164 163.614ZM157.957 163.06H204.629L206.879 98.6711H155.707L157.957 163.06Z" fill="#3F3D56"/>
<path d="M202.55 160.109H160.036L157.992 101.622H204.594L202.55 160.109Z" fill="#3F3D56"/>
<g opacity="0.2">
<path opacity="0.2" d="M168.81 110.202H165.179V155.162H168.81V110.202Z" fill="white"/>
<path opacity="0.2" d="M183.109 110.202H179.477V155.162H183.109V110.202Z" fill="white"/>
<path opacity="0.2" d="M197.407 110.202H193.776V155.162H197.407V110.202Z" fill="white"/>
</g>
<path d="M182.102 72.6954L177.251 80.3728L236.337 117.746L241.188 110.069L182.102 72.6954Z" fill="#3F3D56"/>
<path d="M217.653 81.8748C215.929 80.7833 213.929 80.2095 211.889 80.2215C209.849 80.2335 207.855 80.8307 206.144 81.9424C204.433 83.054 203.077 84.6334 202.236 86.4931C201.396 88.3528 201.106 90.4147 201.402 92.4342L204.228 94.2221C203.518 92.5712 203.354 90.736 203.761 88.9853C204.168 87.2346 205.125 85.6603 206.491 84.493C207.857 83.3256 209.561 82.6265 211.353 82.498C213.145 82.3695 214.931 82.8184 216.45 83.779C217.968 84.7395 219.14 86.1612 219.792 87.8359C220.445 89.5107 220.544 91.3504 220.076 93.0858C219.608 94.8212 218.597 96.3611 217.191 97.48C215.785 98.599 214.058 99.2381 212.262 99.3039L215.089 101.092C217.039 100.493 218.776 99.3466 220.095 97.7892C221.414 96.2319 222.258 94.3287 222.528 92.3056C222.798 90.2825 222.482 88.2245 221.618 86.3756C220.754 84.5267 219.378 82.9647 217.653 81.8748V81.8748Z" fill="#3F3D56"/>
<path d="M252 163.232H0V163.786H252V163.232Z" fill="#3F3D56"/>
<path d="M133.069 68.9261C133.069 68.9261 143.881 76.9699 139.446 78.3567C135.01 79.7435 129.465 73.6414 129.743 71.9772C130.02 70.313 133.069 68.9261 133.069 68.9261Z" fill="#FFB8B8"/>
<path d="M123.644 58.6636L134.733 68.9262L130.297 73.6415L122.812 68.0941L123.644 58.6636Z" fill="#575A89"/>
<path d="M148.458 100.807L125.595 86.1231C133.855 78.8307 139.675 70.6391 141.686 61.0443L164.548 75.728C157.145 82.5866 151.608 91.2169 148.458 100.807Z" fill="#8B30D2"/>
<path d="M156.122 76.737L144.277 69.1298L143.924 69.6809L155.768 77.2882L156.122 76.737Z" fill="#3F3D56"/>
<path d="M154.707 78.9417L142.863 71.3345L142.509 71.8857L154.354 79.4929L154.707 78.9417Z" fill="#3F3D56"/>
<path d="M153.293 81.1465L141.448 73.5393L141.095 74.0905L152.939 81.6977L153.293 81.1465Z" fill="#3F3D56"/>
<path d="M151.878 83.3512L140.034 75.744L139.68 76.2952L151.524 83.9024L151.878 83.3512Z" fill="#3F3D56"/>
<path d="M150.464 85.5559L138.619 77.9487L138.265 78.4999L150.11 86.1071L150.464 85.5559Z" fill="#3F3D56"/>
<path d="M149.049 87.7607L137.205 80.1534L136.851 80.7046L148.695 88.3118L149.049 87.7607Z" fill="#3F3D56"/>
<path d="M147.634 89.9655L135.79 82.3583L135.436 82.9095L147.281 90.5167L147.634 89.9655Z" fill="#3F3D56"/>
<path d="M146.22 92.1702L134.375 84.563L134.022 85.1142L145.866 92.7214L146.22 92.1702Z" fill="#3F3D56"/>
<path d="M84.0457 136.026L79.838 144.883L91.6088 147.701L91.2808 139.163L84.0457 136.026Z" fill="#FFB8B8"/>
<path d="M126.139 147.976L127.525 157.684L138.891 153.524L133.901 146.589L126.139 147.976Z" fill="#FFB8B8"/>
<path d="M100.964 56.5571C100.964 56.5571 99.2222 67.7159 99.6962 73.0229C100.17 78.3298 98.3013 100.72 98.3013 100.72C98.3013 100.72 89.9421 109.818 88.0446 120.208C86.7974 126.754 84.8002 133.135 82.0926 139.223L91.9421 142.431L111.461 105.459C111.461 105.459 125.458 74.8077 124.067 71.8877C122.676 68.9677 120.495 57.2029 120.495 57.2029L100.964 56.5571Z" fill="#2F2E41"/>
<path d="M82.3697 142.569C82.3697 142.569 82.3578 137.569 80.5945 139.727C78.8312 141.885 73.0744 146.053 76.4645 148.968C79.8546 151.883 99.6528 167.684 100.718 163.065C101.31 160.501 91.4356 143.195 91.4356 143.195C91.4356 143.195 88.1384 143.402 87.9097 144.248C87.6811 145.095 82.3697 142.569 82.3697 142.569Z" fill="#2F2E41"/>
<path d="M117.545 11.2334L110.059 19.8318L117.545 27.5982L124.475 17.0581L117.545 11.2334Z" fill="#FFB8B8"/>
<path d="M130.297 11.7882C130.298 13.7135 129.558 15.5653 128.23 16.9593C126.903 18.3533 125.09 19.1826 123.168 19.275C121.246 19.3674 119.362 18.7159 117.907 17.4556C116.452 16.1954 115.538 14.4231 115.354 12.5066C115.171 10.59 115.732 8.67624 116.921 7.16234C118.11 5.64845 119.835 4.65062 121.74 4.37589C123.645 4.10115 125.582 4.5706 127.15 5.68683C128.718 6.80306 129.796 8.48039 130.161 10.3708C130.251 10.8379 130.297 11.3125 130.297 11.7882Z" fill="#FFB8B8"/>
<path d="M117.881 6.11839C120.479 4.91052 123.541 5.06475 126.281 5.90063C127.835 6.3748 129.369 7.08962 130.457 8.29737C131.545 9.50512 132.105 11.2843 131.539 12.8084L129.273 11.0942L129.066 12.6051C127.57 10.2711 124.73 9.25708 122.096 8.39707C121.272 8.1281 120.179 7.94445 119.703 8.66961C119.503 8.97524 119.481 9.3741 119.268 9.67097C118.868 10.2273 118.034 10.1783 117.423 10.4869C116.851 10.7758 116.504 11.3658 116.196 11.9279C115.887 12.49 116.024 13.277 115.465 13.5911C113.224 14.8505 114.545 10.0007 114.911 9.1532C115.633 7.47952 116.234 6.88439 117.881 6.11839Z" fill="#2F2E41"/>
<path d="M96.3366 72.3933C96.3366 72.3933 101.05 82.6559 104.376 86.8165C107.703 90.977 118.515 110.67 118.515 110.67C118.515 110.67 116.574 122.874 120.733 132.582C123.31 138.728 125.17 145.149 126.277 151.721L136.257 148.947L132.099 107.342C132.099 107.342 126.832 74.0575 124.059 72.3933C121.287 70.7291 112.97 62.1306 112.97 62.1306L96.3366 72.3933Z" fill="#2F2E41"/>
<path d="M119.485 27.0435C119.485 27.0435 114.772 14.5619 108.396 18.4451C102.02 22.3282 97.0297 56.9994 97.0297 56.9994C97.0297 56.9994 91.2079 72.8094 97.0297 74.4736C102.851 76.1378 107.564 78.3568 108.396 75.3057C109.228 72.2547 108.673 66.9846 110.059 69.7583C111.446 72.532 110.891 75.8604 113.663 75.8604C116.436 75.8604 127.248 74.4736 126.97 72.532C126.693 70.5904 119.485 27.0435 119.485 27.0435Z" fill="#575A89"/>
<path d="M96.4753 76.1378C96.4753 76.1378 92.8713 86.9552 97.8614 86.9552C102.851 86.9552 102.13 76.0341 102.13 76.0341L96.4753 76.1378Z" fill="#FFB8B8"/>
<path d="M128.356 154.356C128.356 154.356 125.584 150.195 125.307 152.969C125.03 155.743 122.535 162.4 126.97 162.954C131.406 163.509 156.634 165.728 154.97 161.29C154.047 158.826 136.257 149.864 136.257 149.864C136.257 149.864 133.624 151.86 133.901 152.692C134.178 153.524 128.356 154.356 128.356 154.356Z" fill="#2F2E41"/>
<path d="M135.149 13.5911C135.149 13.5911 133.834 14.72 132.129 12.4871C131.683 11.8796 131.301 11.227 130.99 10.54C129.618 9.17588 127.778 8.38548 125.845 8.32939C125.714 8.32385 125.581 8.32108 125.446 8.32107C121.842 8.32107 121.01 5.82475 121.01 5.82475L115.188 7.76633C115.188 7.76633 116.02 0 124.059 0C132.099 0 132.376 6.65686 132.376 6.65686C132.376 6.65686 138.752 9.15318 135.149 13.5911Z" fill="#575A89"/>
<path opacity="0.2" d="M132.13 12.4872C131.683 11.8796 131.301 11.227 130.99 10.54C129.618 9.17588 127.778 8.38549 125.845 8.32939C127.871 7.69422 131.395 6.95642 132.931 8.87581C134.345 10.6427 133.169 11.8464 132.13 12.4872Z" fill="black"/>
<path d="M108.673 20.664C108.673 20.664 101.188 19.2772 99.2475 25.934C97.3069 32.5909 93.1485 52.2841 93.1485 52.2841L95.6435 72.532L95.3663 77.5247H103.406V72.2547C103.406 71.6999 104.515 50.0651 104.515 50.0651L113.663 29.2625C113.663 29.2625 115.604 22.6056 108.673 20.664Z" fill="#575A89"/>
<path opacity="0.2" d="M113.802 32.1748L104.653 50.2038L103.531 76.034L106.594 49.9264L113.802 32.1748Z" fill="black"/>
<path opacity="0.2" d="M124.898 59.8246L126.976 70.4778L125.937 60.7859L124.898 59.8246Z" fill="black"/>
<path opacity="0.2" d="M101.327 84.7363L113.248 101.656L112 104.152L101.327 84.7363Z" fill="black"/>
</svg>
